<?xml version="1.0" encoding="UTF-8"?>
<svg width="107px" height="49px" viewBox="0 0 107 49" version="1.1" xmlns="http://www.w3.org/2000/svg" xmlns:xlink="http://www.w3.org/1999/xlink">
    <!-- Generator: Sketch 52.6 (67491) - http://www.bohemiancoding.com/sketch -->
    <title>LOGO</title>
    <desc>Created with Sketch.</desc>
    <defs>
        <linearGradient x1="50%" y1="0%" x2="50%" y2="100%" id="linearGradient-1">
            <stop stop-color="#9812B5" offset="0%"></stop>
            <stop stop-color="#5F077F" offset="100%"></stop>
        </linearGradient>
        <linearGradient x1="50%" y1="0%" x2="50%" y2="100%" id="linearGradient-2">
            <stop stop-color="#D385EA" offset="0%"></stop>
            <stop stop-color="#A74DD1" offset="100%"></stop>
        </linearGradient>
        <linearGradient x1="50%" y1="0%" x2="50%" y2="100%" id="linearGradient-3">
            <stop stop-color="#CC70CC" offset="0%"></stop>
            <stop stop-color="#9D3D9D" offset="100%"></stop>
        </linearGradient>
        <linearGradient x1="50%" y1="0%" x2="50%" y2="100%" id="linearGradient-4">
            <stop stop-color="#E36BF3" offset="0%"></stop>
            <stop stop-color="#D95DEF" offset="34.3275831%"></stop>
            <stop stop-color="#C23AE3" offset="100%"></stop>
        </linearGradient>
    </defs>
    <g id="Page-1" stroke="none" stroke-width="1" fill="none" fill-rule="evenodd">
        <g id="LOGO" transform="translate(-1.000000, 0.000000)">
            <text id="Sant" fill="#FFFFFF" font-family="HelveticaNeue, Helvetica Neue" font-size="32" font-weight="normal">
                <tspan x="0" y="38">Sant</tspan>
            </text>
            <g id="bottom" transform="translate(76.000000, 25.000000)">
                <polygon id="PURPE-BOTTOM-R" fill="url(#linearGradient-1)" points="30.6521739 0.737787776 15.6128472 21.6730769 15.6128472 7.51923077"></polygon>
                <polygon id="PURPLE-BOTTOM-" fill="url(#linearGradient-2)" points="0.792590307 0.737787776 15.6128472 7.51923077 15.5 22.7090081"></polygon>
                <g id="bottom-left" transform="translate(8.500000, 11.500000) scale(1, -1) translate(-8.500000, -11.500000) " stroke="#000000" stroke-linecap="round" stroke-linejoin="bevel">
                    <path d="M15.6128472,1.32692308 L15.6128472,15.752336" id="Line"></path>
                    <path d="M15.6128472,15.752336 L0.472222222,22.5576923" id="Line-2"></path>
                    <path d="M15.6128472,0.442307692 L0.472222222,22.323722" id="Line-3"></path>
                </g>
                <g id="bottom-right" transform="translate(23.000000, 11.500000) scale(-1, -1) translate(-23.000000, -11.500000) translate(15.000000, 0.000000)" stroke="#000000" stroke-linecap="round" stroke-linejoin="bevel">
                    <path d="M15.5294118,0.290991903 L15.5294118,15.4807692" id="Line"></path>
                    <path d="M15.5294118,15.4807692 L0,22.5576923" id="Line-2"></path>
                    <path d="M15.5294118,0.442307692 L0,22.5576923" id="Line-3"></path>
                </g>
            </g>
            <g id="left-triangle" transform="translate(76.000000, 0.175541)" fill="#1D1A1A" stroke="#000000" stroke-linecap="round" stroke-linejoin="bevel">
                <path d="M15.580178,0.360757173 L15.580178,29.9428454" id="Line"></path>
                <path d="M15.580178,29.9428454 L0.346226177,23.4492163" id="Line-2"></path>
                <path d="M15.580178,0.360757173 L0.346226177,23.4492163" id="Line-3"></path>
            </g>
            <polygon id="PURPLE-RIGHT" fill="url(#linearGradient-3)" points="91.6128472 1.37467878 106.711523 23.1412874 91.6128472 29.5160949"></polygon>
            <polygon id="Purple-FIll-left-TRi" fill="url(#linearGradient-4)" points="91.5 1.37467878 91.6128472 30 76.7925903 23.2639996"></polygon>
            <g id="right-triangle" transform="translate(99.000000, 15.000000) scale(-1, 1) translate(-99.000000, -15.000000) translate(91.000000, 0.000000)" stroke="#000000" stroke-linecap="round" stroke-linejoin="bevel">
                <path d="M15.5,0.97467742 L15.5,29.2193878" id="Line"></path>
                <path d="M15.4066496,29.5160949 L0.347826087,23.1502041" id="Line-2"></path>
                <path d="M15.4066496,0.355615601 L0.288476879,23.1412874" id="Line-3"></path>
            </g>
            <path d="M77.2201729,23.5889104 L91.2250185,29.9832848 L105.688211,23.6436445 L91.5775303,17.2445288 L77.2201729,23.5889104 Z" id="Rectangle" stroke="#000000"></path>
            <g id="top" transform="translate(76.000000, 0.000000)"></g>
        </g>
    </g>
</svg>