<?xml version="1.0" encoding="UTF-8"?>
<svg width="100px" height="45px" viewBox="0 0 100 45" version="1.1" xmlns="http://www.w3.org/2000/svg" xmlns:xlink="http://www.w3.org/1999/xlink">
    <!-- Generator: Sketch 52.6 (67491) - http://www.bohemiancoding.com/sketch -->
    <title>CURRENT LOGO</title>
    <desc>Created with Sketch.</desc>
    <defs>
        <linearGradient x1="50%" y1="0%" x2="50%" y2="100%" id="linearGradient-1">
            <stop stop-color="#F369D9" offset="0%"></stop>
            <stop stop-color="#E51BA7" offset="92.1400831%"></stop>
            <stop stop-color="#E318A3" offset="100%"></stop>
        </linearGradient>
    </defs>
    <g id="Page-1" stroke="none" stroke-width="1" fill="none" fill-rule="evenodd">
        <g id="CURRENT-LOGO" transform="translate(1.000000, 0.000000)">
            <text id="Sant." font-family="HelveticaNeue-Medium, Helvetica Neue" font-size="24" font-weight="400" fill="#000000">
                <tspan x="43" y="36">Sant.</tspan>
            </text>
            <circle id="Pink-Circle" stroke="#FBDBFF" fill="#FBDBFF" cx="18.5" cy="25.5" r="18.5"></circle>
            <g id="GHOST" transform="translate(8.000000, 13.000000)">
                <path d="M11,23 C16.5228475,23 21,18.5228475 21,13 C21,10.0563632 19.7281256,7.40978867 17.7039445,5.57984394 C16.8713766,4.82716753 15.9115358,4.21264591 14.860576,3.77243279 C13.6727198,3.27487823 12.3684605,3 11,3 C9.87277396,3 7.73158854,3.20450476 5.99539878,2.64759966 C4.17314205,2.06308748 1.86705364,0.00639001391 1,0.680177468 C-0.0436652535,1.49120982 2.94681119,6.92352949 2.29191635,8.08021098 C1.46947871,9.53280817 1,11.2115778 1,13 C1,14.1830008 1.2054215,15.3180229 1.58254006,16.3713418 C1.72644225,16.7732708 1.89534455,17.1633034 2.08737319,17.5395657 C2.30748717,17.9708586 2.55798691,18.3840588 2.83605042,18.7763443 C4.64758377,21.3320128 7.62900224,23 11,23 Z" id="Head" stroke="#000000" fill="#FFEA92"></path>
                <g id="Mouth" opacity="0" transform="translate(10.000000, 16.000000)">
                    <path d="M1,1.24545989 C1.55228475,1.24545989 2,0.797744639 2,0.245459889 C2,-0.306824861 1.55228475,0.245459889 1,0.245459889 C0.44771525,0.245459889 -2.22044605e-16,-0.306824861 -2.22044605e-16,0.245459889 C-2.22044605e-16,0.797744639 0.44771525,1.24545989 1,1.24545989 Z" stroke="#000000" fill="#000000"></path>
                    <path d="M0.823879114,1.18839069 C0.58978794,1.31015663 1.19309705,1.27713334 1.47837963,1.13203698 C1.52816186,1.10671745 1.60546147,1.0404476 1.65341202,1.01047324 C1.88585748,0.865169266 1.96535446,0.57096888 1.78063246,0.613034123 C1.33943517,0.713504408 1.29684074,0.942372786 0.823879114,1.18839069 Z" id="Tongue" stroke="#FE9C9C" fill="#FE9C9C"></path>
                </g>
                <path d="M1.58032032,1.48078117 C2.8537436,2.68872454 3.66030349,3.61771584 4,4.26775507 C4.33969651,4.91779431 4.33969651,5.53222652 4,6.11105171 L3.42132133,7.30426836 C3.38949633,7.00625667 3.3305265,6.75292273 3.24441184,6.54426654 C2.84485728,5.57614416 2.68278059,4.79512733 2.51164096,4.26775507 C2.2851736,3.56988864 1.97473339,2.64089734 1.58032032,1.48078117 Z" id="Ear-Shadow" stroke="#D8CF96" fill="#D8CF96" stroke-linecap="round" stroke-linejoin="round"></path>
                <path d="M4,18.6678672 C3,17.9252161 1.94707825,15.3768041 1.97154546,13.2733752 C2.01526677,9.51468308 4,5.64695774 4,6.15645653 C4,6.52345599 3.34064761,7.5625401 3,8.58638431 C2.76823241,9.28298071 2.39580246,10.0524144 2.27111214,10.8564451 C2.11812961,11.8429103 2.24154904,12.8883606 2.27111214,14 C2.32882104,16.169985 4.52987236,19.0613776 4,18.6678672 Z" id="Cheek-Shadow" stroke="#D8CF96" fill="#D8CF96"></path>
                <g id="Left-Eye" transform="translate(3.000000, 8.000000)">
                    <circle id="Left-Eye-(whites)" fill="#FFFFFF" cx="3" cy="3" r="3"></circle>
                    <circle id="Left-Eye-(pink)" fill="#FF9CF5" cx="3.5" cy="2.5" r="2.5"></circle>
                    <circle id="Left-Eye-(black)" fill="#000000" cx="4" cy="2" r="2"></circle>
                    <path d="M5,2 C5.55228475,2 6,1.55228475 6,1 C6,0.44771525 5.55228475,0 5,0 C4.44771525,0 4,0.44771525 4,1 C4,1.55228475 4.44771525,2 5,2 Z" id="Left-Eye-Top-(whites)" fill="#FFFFFF"></path>
                </g>
                <g id="Right-Eye" transform="translate(12.000000, 8.000000)">
                    <circle id="Right-Eye-Whites" fill="#FFFFFF" cx="3" cy="3" r="3"></circle>
                    <circle id="Right-Eye-(pink)" fill="#FF9CF5" cx="3.5" cy="2.5" r="2.5"></circle>
                    <circle id="Right-Eye-(black)" fill="#000000" cx="4" cy="2" r="2"></circle>
                    <path d="M5,2 C5.55228475,2 6,1.55228475 6,1 C6,0.44771525 5.55228475,0 5,0 C4.44771525,0 4,0.44771525 4,1 C4,1.55228475 4.44771525,2 5,2 Z" id="Right-Eye-Top-(whites)-Copy" fill="#FFFFFF"></path>
                </g>
                <g id="Freckles" transform="translate(4.000000, 15.000000)" fill="#BCA0A0" stroke="#BCA0A0">
                    <circle id="Oval" cx="10.25" cy="0.25" r="1"></circle>
                    <circle id="Oval-Copy-2" cx="3.25" cy="0.25" r="1"></circle>
                    <circle id="Oval-Copy-3" cx="0.25" cy="0.25" r="1"></circle>
                    <circle id="Oval-Copy" cx="13.25" cy="0.25" r="1"></circle>
                </g>
                <g id="Lower-Body" transform="translate(6.000000, 21.000000)">
                    <ellipse stroke="#000000" fill="#FFEA92" cx="5" cy="3.5" rx="5" ry="3.5"></ellipse>
                    <path d="M1,4 C2.16805713,5.17045104 3.16805713,5.82993002 4,5.97843692 C4.83194287,6.12694382 6.16527621,5.88397915 8,5.2495429 C7.40430729,5.52034386 6.94733397,5.69346891 6.62908005,5.76891808 C5.66508209,5.9974552 4.70622577,6.01155966 4.24441184,5.97843692 C3.55390328,5.92891148 2.63909933,5.52260723 1.5,4.75952416 L1,4 Z" id="Lower-Body-Shadow" stroke="#D8CF96" fill="#D8CF96" stroke-linecap="round" stroke-linejoin="round"></path>
                </g>
            </g>
            <g id="Ethereum-Logo" transform="translate(15.000000, 0.000000)">
                <polygon id="Rectangle" fill="#A87B9A" points="3.88948283 4 8 5.99264435 3.88948283 8 0 5.99264435"></polygon>
                <polygon id="Triangle" fill="#F336B8" points="4 2.22044605e-16 4 8 0 5.75294357"></polygon>
                <polygon id="Triangle-Copy-2" fill="#961F70" points="4.01313765 14 4 8.80524761 8 7"></polygon>
                <polygon id="Triangle-Copy-3" fill="url(#linearGradient-1)" points="4 14 0 7 3.99859706 8.8121205"></polygon>
                <polygon id="Triangle-Copy" fill="#C82B97" points="4 0 8 5.75294357 4 8"></polygon>
            </g>
        </g>
    </g>
</svg>